<?xml version="1.0" encoding="iso-8859-1"?>
<!-- Generator: Adobe Illustrator 19.0.0, SVG Export Plug-In . SVG Version: 6.00 Build 0)  -->
<svg version="1.1" id="Layer_1" xmlns="http://www.w3.org/2000/svg" xmlns:xlink="http://www.w3.org/1999/xlink" x="0px" y="0px"
	 viewBox="0 0 512.001 512.001" style="enable-background:new 0 0 512.001 512.001;" xml:space="preserve">
<rect x="35.526" y="325.855" style="fill:#65513C;" width="440.953" height="178.011"/>
<rect x="35.526" y="421.199" style="fill:#EED898;" width="440.953" height="27.933"/>
<path style="fill:#EE9BAC;" d="M475.761,289.963c13.486,0,24.417,10.931,24.417,24.417v29.297c0,26.973-21.865,48.836-48.836,48.836
	s-48.836-21.863-48.836-48.836c0,26.973-21.865,48.836-48.835,48.836c-26.971,0-48.836-21.863-48.836-48.836
	c0,26.973-21.865,48.836-48.836,48.836s-48.836-21.863-48.836-48.836c0,26.973-21.866,48.836-48.836,48.836
	s-48.835-21.863-48.835-48.836c0,26.973-21.866,48.836-48.836,48.836s-48.836-21.863-48.836-48.836V314.38
	c0-13.485,10.931-24.417,24.417-24.417h439.522V289.963z"/>
<rect x="108.065" y="170.523" style="fill:#65513C;" width="295.861" height="119.443"/>
<rect x="108.065" y="231.973" style="fill:#EED898;" width="295.861" height="18.742"/>
<path style="fill:#EE9BAC;" d="M403.452,143.91c9.049,0,16.384,7.334,16.384,16.384v19.656c0,18.098-14.67,32.768-32.766,32.768
	c-18.097,0-32.768-14.67-32.768-32.768c0,18.098-14.671,32.768-32.766,32.768c-18.097,0-32.769-14.67-32.769-32.768
	c0,18.098-14.671,32.768-32.766,32.768s-32.766-14.67-32.766-32.768c0,18.098-14.672,32.768-32.769,32.768
	c-18.096,0-32.766-14.67-32.766-32.768c0,18.098-14.671,32.768-32.768,32.768s-32.766-14.67-32.766-32.768v-19.656
	c0-9.05,7.335-16.384,16.384-16.384H403.452z"/>
<g>
	<path style="fill:#FFB819;" d="M215.041,46.183c0-9.861-17.853-38.056-17.853-38.056s-17.854,28.196-17.854,38.056
		s7.991,17.854,17.854,17.854C207.048,64.038,215.041,56.044,215.041,46.183z"/>
	<path style="fill:#FFB819;" d="M273.849,46.183c0-9.861-17.854-38.056-17.854-38.056S238.14,36.323,238.14,46.183
		s7.993,17.854,17.854,17.854C265.855,64.038,273.849,56.044,273.849,46.183z"/>
	<path style="fill:#FFB819;" d="M332.656,46.183c0-9.861-17.853-38.056-17.853-38.056s-17.855,28.196-17.855,38.056
		s7.993,17.854,17.855,17.854C324.663,64.038,332.656,56.044,332.656,46.183z"/>
</g>
<path style="fill:#022A3A;" d="M197.187,72.164c14.326,0,25.98-11.655,25.98-25.981c0-11.336-14.629-35.323-19.114-42.404
	c-1.49-2.354-4.081-3.78-6.866-3.78c-2.785,0-5.376,1.426-6.866,3.78c-4.484,7.081-19.114,31.067-19.114,42.404
	C171.206,60.509,182.861,72.164,197.187,72.164z M197.189,24.045c5.63,10.121,9.725,19.234,9.725,22.139
	c0,5.364-4.364,9.727-9.726,9.727c-5.364,0-9.727-4.364-9.727-9.727C187.46,43.284,191.556,34.171,197.189,24.045z M314.804,72.164
	c14.325,0,25.98-11.655,25.98-25.981c0-11.336-14.629-35.323-19.113-42.404C320.179,1.426,317.589,0,314.804,0
	s-5.377,1.426-6.867,3.778c-4.484,7.082-19.115,31.068-19.115,42.405C288.822,60.509,300.477,72.164,314.804,72.164z
	 M314.804,24.044c5.63,10.122,9.725,19.234,9.725,22.14c0,5.364-4.363,9.727-9.726,9.727s-9.728-4.364-9.728-9.727
	C305.075,43.284,309.172,34.17,314.804,24.044z M475.761,281.836h-63.704v-69.548c9.666-7.486,15.906-19.193,15.906-32.338v-19.656
	c0-13.516-10.995-24.511-24.511-24.511h-80.524V80.915h-16.254v54.868h-42.553V80.915h-16.254v54.868h-42.553V80.915h-16.254v54.868
	h-80.513c-13.516,0-24.511,10.995-24.511,24.511v19.656c0,13.144,6.239,24.852,15.906,32.338v69.548H36.239
	c-17.945,0-32.544,14.599-32.544,32.544v29.297c0,19.002,9.362,35.848,23.706,46.203v113.994c0,4.488,3.639,8.127,8.127,8.127
	h440.947c4.488,0,8.127-3.639,8.127-8.127V389.879c14.343-10.354,23.706-27.2,23.706-46.203V314.38
	C508.305,296.435,493.706,281.836,475.761,281.836z M100.29,160.294c0-4.553,3.704-8.257,8.257-8.257h294.905
	c4.553,0,8.257,3.704,8.257,8.257v19.656c0,13.587-11.054,24.641-24.64,24.641c-13.587,0-24.641-11.054-24.641-24.641
	c0-4.488-3.639-8.127-8.127-8.127s-8.127,3.639-8.127,8.127c0,13.587-11.054,24.641-24.64,24.641
	c-13.587,0-24.642-11.054-24.642-24.641c0-4.488-3.639-8.127-8.127-8.127s-8.127,3.639-8.127,8.127
	c0,13.587-11.054,24.641-24.64,24.641c-13.586,0-24.64-11.054-24.64-24.641c0-4.488-3.639-8.127-8.127-8.127
	c-4.488,0-8.127,3.639-8.127,8.127c0,13.587-11.055,24.641-24.642,24.641s-24.64-11.054-24.64-24.641
	c0-4.488-3.639-8.127-8.127-8.127s-8.127,3.639-8.127,8.127c0,13.587-11.054,24.641-24.641,24.641
	c-13.586,0-24.64-11.054-24.64-24.641v-19.656H100.29z M116.195,242.584v-22.688c2.816,0.615,5.736,0.948,8.735,0.948
	c13.393,0,25.304-6.473,32.768-16.453c7.464,9.98,19.374,16.453,32.766,16.453c13.393,0,25.304-6.473,32.769-16.453
	c7.464,9.98,19.374,16.453,32.766,16.453s25.304-6.473,32.766-16.453c7.465,9.98,19.376,16.453,32.769,16.453
	c13.392,0,25.303-6.473,32.766-16.453c7.464,9.98,19.374,16.453,32.767,16.453c2.998,0,5.917-0.334,8.735-0.948v22.688H116.195z
	 M395.803,258.837v22.998H116.195v-22.998L395.803,258.837L395.803,258.837z M468.346,495.746H43.653v-38.482h424.694V495.746z
	 M468.346,441.01H43.653v-42.964c5.372,1.684,11.084,2.593,17.004,2.593c20.703,0,38.862-11.102,48.836-27.665
	c9.974,16.563,28.132,27.665,48.835,27.665s38.862-11.102,48.836-27.665c9.973,16.563,28.133,27.665,48.836,27.665
	s38.862-11.102,48.836-27.665c9.974,16.563,28.133,27.665,48.836,27.665c20.702,0,38.861-11.102,48.835-27.665
	c9.974,16.563,28.133,27.665,48.836,27.665c5.92,0,11.631-0.909,17.004-2.593v42.964H468.346z M492.052,343.677
	c0,22.446-18.262,40.709-40.709,40.709s-40.709-18.262-40.709-40.709c0-4.488-3.639-8.127-8.127-8.127
	c-4.488,0-8.127,3.639-8.127,8.127c0,22.446-18.262,40.709-40.708,40.709c-22.447,0-40.709-18.262-40.709-40.709
	c0-4.488-3.639-8.127-8.127-8.127c-4.488,0-8.127,3.639-8.127,8.127c0,22.446-18.263,40.709-40.709,40.709
	s-40.709-18.262-40.709-40.709c0-4.488-3.639-8.127-8.127-8.127s-8.127,3.639-8.127,8.127c0,22.446-18.263,40.709-40.709,40.709
	s-40.708-18.262-40.708-40.709c0-4.488-3.639-8.127-8.127-8.127c-4.488,0-8.127,3.639-8.127,8.127
	c0,22.446-18.263,40.709-40.709,40.709s-40.709-18.262-40.709-40.709V314.38c0-8.983,7.308-16.291,16.291-16.291h439.522
	c8.983,0,16.291,7.308,16.291,16.291V343.677z M255.995,72.164c14.326,0,25.981-11.655,25.981-25.981
	c0-11.336-14.631-35.323-19.114-42.404C261.37,1.426,258.779,0,255.995,0s-5.376,1.426-6.866,3.78
	c-4.484,7.081-19.114,31.067-19.114,42.404C230.014,60.509,241.669,72.164,255.995,72.164z M255.995,24.047
	c5.631,10.125,9.727,19.237,9.727,22.136c0,5.364-4.364,9.727-9.727,9.727c-5.364,0-9.727-4.364-9.727-9.727
	C246.267,43.284,250.363,34.172,255.995,24.047z"/>
<g>
</g>
<g>
</g>
<g>
</g>
<g>
</g>
<g>
</g>
<g>
</g>
<g>
</g>
<g>
</g>
<g>
</g>
<g>
</g>
<g>
</g>
<g>
</g>
<g>
</g>
<g>
</g>
<g>
</g>
</svg>
